# xmcd
#
# Track frame offsets:
#	150
#	11868
#	23058
#	36673
#	49588
#	61468
#	74753
#	88388
#	99213
#	113690
#	129103
#	137228
#	153058
#	164600
#
# Disc length: 2316
#
# Revision: 3
# Processed by: cddbd v1.5.1PL0 Copyright (c) Steve Scherf et al.
# Submitted via: CDex 1.30
# Normalized: r1:TDELIM( - ),TSWAP
#
DISCID=bf090a0e
DTITLE=Various Artist - The Best of Blues and Soul CD1
DYEAR=2000
DGENRE=Blues
TTITLE0=Lou Rawls - Kiddio
TTITLE1=Joe Tex - Could this be love
TTITLE2=Jimmy Reed - Take It Slow
TTITLE3=Sam Cooke - Deep River
TTITLE4=Joe Tex - I Just Can't Take It
TTITLE5=Jimmy Reed - Let's Get Together
TTITLE6=Sam Cooke - I Thank God
TTITLE7=Sam Cooke - Steal Away
TTITLE8=Ray Charles - Walkin' and Talkin'
TTITLE9=Ray Charles - I'm Wonderin'
TTITLE10=Little Richard - I've Just Come From The Fountain
TTITLE11=Ray Charles - I Found My Baby There
TTITLE12=Little Richard - Need Him
TTITLE13=Sam Cooke - That's Heaven To Me
EXTD=\nYEAR: 2000  ID3G:   0
EXTT0=
EXTT1=
EXTT2=
EXTT3=
EXTT4=
EXTT5=
EXTT6=
EXTT7=
EXTT8=
EXTT9=
EXTT10=
EXTT11=
EXTT12=
EXTT13=
PLAYORDER=
